<svg width="153" height="32" viewBox="0 0 406 74" fill="none" xmlns="http://www.w3.org/2000/svg">
<path d="M0 1.03106V72.69H12.7832V47.1196H19.0163C35.7084 47.1196 46.3786 39.5928 46.3786 23.7145C46.3786 9.27958 36.4479 1.03106 19.1219 1.03106H0ZM19.1219 37.4276H12.7832V10.7231H19.5445C28.5244 10.7231 33.3842 14.7442 33.3842 23.7145C33.3842 33.0971 27.9962 37.4276 19.1219 37.4276ZM65.7688 40.3146C69.2551 34.0251 74.4318 30.8288 82.144 31.2412V19.6933C74.96 20.1057 69.0439 24.3331 66.0858 31.1381H65.7688L65.4519 20.8275H53.1969V72.69H65.7688V40.3146ZM125.275 37.3245C125.275 24.7455 118.725 20.0026 105.413 20.0026C97.0674 20.0026 90.5173 22.5803 86.7141 24.7455V34.9531C90.0947 32.4785 97.49 29.7977 103.934 29.7977C109.956 29.7977 112.703 31.8599 112.703 37.4276V40.3146H110.696C91.4681 40.3146 82.9108 46.501 82.9108 57.0178C82.9108 67.5347 89.4608 73.4117 99.1803 73.4117C106.576 73.4117 109.745 71.0403 112.175 68.5657H112.703C112.809 69.9061 113.231 71.6589 113.654 72.69H125.909C125.486 68.4626 125.275 64.2353 125.275 60.0079V37.3245ZM112.703 60.3172C111.118 62.5856 108.16 64.4415 103.723 64.4415C98.4408 64.4415 95.7996 61.3483 95.7996 56.7085C95.7996 50.6252 100.131 48.46 110.907 48.46H112.703V60.3172ZM157.051 73.7211C162.861 73.7211 166.982 72.69 170.045 70.5248V60.5234C166.876 62.6887 163.073 64.0291 157.79 64.0291C148.81 64.0291 145.113 57.224 145.113 46.501C145.113 35.2624 149.656 29.4884 157.896 29.4884C162.756 29.4884 167.51 31.1381 170.045 32.6847V22.271C167.404 20.8275 162.756 19.7964 156.523 19.7964C140.464 19.7964 132.118 31.035 132.118 46.8103C132.118 64.1322 140.253 73.7211 157.051 73.7211ZM175.852 20.8275V30.5195H182.507V57.1209C182.507 66.8129 188.107 73.7211 199.728 73.7211C205.855 73.7211 209.342 72.3807 209.342 72.3807V62.3793C209.342 62.3793 207.017 64.0291 202.792 64.0291C197.509 64.0291 195.079 61.039 195.079 57.224V30.5195H208.285V20.8275H195.079V9.48579H182.507V20.8275H175.852ZM223.421 14.4349C227.539 14.4349 230.814 11.651 230.814 7.21745C230.814 2.88698 227.539 0 223.421 0C219.3 0 216.131 2.88698 216.131 7.21745C216.131 11.651 219.3 14.4349 223.421 14.4349ZM217.187 20.8275V72.69H229.758V20.8275H217.187ZM262.302 73.7211C268.113 73.7211 272.233 72.69 275.297 70.5248V60.5234C272.128 62.6887 268.324 64.0291 263.042 64.0291C254.062 64.0291 250.364 57.224 250.364 46.501C250.364 35.2624 254.907 29.4884 263.148 29.4884C268.007 29.4884 272.761 31.1381 275.297 32.6847V22.271C272.656 20.8275 268.007 19.7964 261.774 19.7964C245.716 19.7964 237.37 31.035 237.37 46.8103C237.37 64.1322 245.505 73.7211 262.302 73.7211ZM313.663 58.0489C311.339 60.8328 307.641 63.2042 303.098 63.2042C298.661 63.2042 296.654 61.3483 296.654 57.4302V20.8275H284.082V58.6675C284.082 68.9782 288.308 73.5148 298.556 73.5148C306.057 73.5148 310.494 70.8341 313.029 68.3595H313.663L313.98 72.69H326.235V20.8275H313.663V58.0489ZM348.951 35.4686C351.275 32.6847 354.445 30.3133 358.987 30.3133C363.425 30.3133 364.904 32.1692 364.904 36.0872V72.69H377.475V35.4686C379.8 32.6847 382.969 30.3133 387.512 30.3133C391.949 30.3133 393.428 32.1692 393.428 36.0872V72.69H406V34.85C406 24.5393 402.302 20.0026 392.055 20.0026C383.92 20.0026 379.06 23.0958 376.102 26.6014C374.095 22.0648 369.869 20.0026 363.002 20.0026C355.501 20.0026 352.12 22.6834 349.585 25.158H348.951L348.634 20.8275H336.379V72.69H348.951V35.4686Z" fill="white"/>
</svg>